<svg xmlns="http://www.w3.org/2000/svg" xmlns:xlink="http://www.w3.org/1999/xlink" version="1.0" x="0px" y="0px" viewBox="0 0 74 92.5" style="enable-background:new 0 0 74 74;" xml:space="preserve"><g><path d="M24.22,46.4c0.15,0.82,0.61,1.49,1.38,1.99c0.6,0.39,1.26,0.59,1.97,0.59c2.13,0,4.71-1.76,7.47-5.17   c0.66-0.81,1.66-1.3,2.68-1.31c1.82-0.01,4.29-0.4,5.73-2.2c1.1-1.38,1.38-3.32,0.85-5.76c-1.25-5.66-6.46-8.34-10.61-9.6   c-2.37-0.72-3.97-2.86-3.99-5.33c-0.03-5.13,2.18-8.02,6.77-8.82c4.52-0.79,8.07,1.59,10.56,7.07c1.96,4.33,2.54,9.28,1.68,14.32   c-0.07,0.41,0.2,0.8,0.61,0.87c0.41,0.08,0.8-0.2,0.87-0.61c0.91-5.34,0.29-10.59-1.79-15.19c-2.76-6.09-6.97-8.83-12.18-7.92   c-5.35,0.93-8.04,4.4-8.01,10.3c0.02,3.13,2.05,5.84,5.05,6.75c3.77,1.14,8.49,3.54,9.58,8.49c0.44,1.98,0.25,3.49-0.55,4.5   c-1.07,1.34-3.07,1.63-4.56,1.64c-1.49,0.01-2.88,0.69-3.84,1.86c-1.46,1.8-5.1,5.81-7.45,4.27c-0.41-0.27-0.65-0.59-0.72-1   c-0.15-0.82,0.34-2.02,1.4-3.46c1.33-1.81,1.48-4.21,0.39-6.11c-0.19-0.33-0.21-0.72-0.09-1.22c0.06-0.24,0.24-0.44,0.49-0.53   c0.26-0.1,0.55-0.07,0.77,0.07c0.46,0.3,1.86,1.2,2.87,0.47c0.8-0.57,0.92-1.79,0.38-3.93c-0.1-0.4-0.51-0.65-0.91-0.54   c-0.4,0.1-0.65,0.51-0.54,0.91c0.48,1.91,0.21,2.33,0.22,2.34c-0.02,0.01-0.35,0.05-1.2-0.5c-0.63-0.41-1.43-0.49-2.13-0.21   c-0.7,0.27-1.21,0.84-1.4,1.55c-0.23,0.88-0.15,1.67,0.24,2.35c0.8,1.39,0.68,3.14-0.3,4.47C24.55,43.59,23.99,45.14,24.22,46.4z"/><path d="M54.28,23.67c-0.22-4.46-3.37-12.75-9.45-16.37c-6.78-4.05-15.38-2.62-19.98,3.33c-3.36,4.34-3.83,9.74-1.4,16.04   c0.15,0.39,0.58,0.58,0.97,0.43c0.39-0.15,0.58-0.58,0.43-0.97c-2.23-5.78-1.83-10.69,1.19-14.59c4.14-5.35,11.89-6.63,18.03-2.96   c5.61,3.34,8.52,11.02,8.72,15.16c0.16,3.36-0.16,6.75-1,10.39c-0.53,2.45-1.31,4.5-2.68,7.05c-1.68,3.1-3.67,4.79-5.76,4.88   c-2.62,0.11-4.92,1.13-6.39,2.67c-0.02,0.02-0.03,0.03-0.05,0.05c-0.85,0.91-1.41,1.99-1.59,3.18c-0.07,0.53-0.11,0.99-0.13,1.45   c-0.18,4.55-3.99,5.95-5.89,6.36c-0.09-0.4-0.15-0.82-0.15-1.25c0-1.41,0.54-2.73,1.51-3.76h0.74c0.41,0,0.75-0.34,0.75-0.75   s-0.34-0.75-0.75-0.75h-6.93c-0.41,0-0.75,0.34-0.75,0.75s0.34,0.75,0.75,0.75h0.41c-0.46,1.2-0.71,2.48-0.71,3.76   c0,0.08,0.01,0.15,0.01,0.23c-1.77-1.44-2.75-4.25-2.95-8.56c-0.03-0.54-0.04-1.08-0.04-1.64c0-0.41-0.34-0.75-0.75-0.75   c0,0,0,0,0,0c-0.41,0-0.75,0.34-0.75,0.75c0,0.58,0.02,1.15,0.05,1.71c0.27,5.58,1.81,8.97,4.66,10.4C25.38,65.43,29.6,69,34.63,69   c5.77,0,10.46-4.69,10.46-10.46c0-4.18-2.44-7.87-6.18-9.54c1.18-0.83,2.74-1.36,4.48-1.43c1.85-0.08,4.56-1.13,7.02-5.67   c1.45-2.69,2.27-4.85,2.83-7.44C54.11,30.69,54.45,27.16,54.28,23.67z M36.67,53.49c0-0.02,0-0.03,0-0.05   c2.04,0.83,3.45,2.85,3.45,5.11c0,3.03-2.47,5.5-5.5,5.5c-2.06,0-3.86-1.14-4.8-2.83C32.15,60.65,36.46,58.9,36.67,53.49z    M43.59,58.54c0,4.94-4.02,8.96-8.96,8.96s-8.96-4.02-8.96-8.96c0-1.31,0.28-2.58,0.83-3.76h2.24c-0.72,1.12-1.1,2.41-1.1,3.76   c0,3.86,3.14,7,7,7c3.86,0,7-3.14,7-7c0-3-1.97-5.66-4.77-6.61c0.14-0.65,0.44-1.25,0.87-1.79C41.26,51.43,43.59,54.75,43.59,58.54   z"/></g><text x="0" y="89" fill="#000000" font-size="5px" font-weight="bold" font-family="'Helvetica Neue', Helvetica, Arial-Unicode, Arial, Sans-serif">Created by Azam Ishaq</text><text x="0" y="94" fill="#000000" font-size="5px" font-weight="bold" font-family="'Helvetica Neue', Helvetica, Arial-Unicode, Arial, Sans-serif">from the Noun Project</text></svg>