<svg xmlns="http://www.w3.org/2000/svg" version="1.1" viewBox="-5.0 -10.0 110.0 135.0">
 <g>
  <path d="m34.879 20.312-3.125-7.8125h-5.8359l8.5938 7.8125z"/>
  <path d="m43.004 12.5h-7.8828l3.125 7.8125h1.6328z"/>
  <path d="m46.371 12.5-3.125 7.8125h0.36719l8.5938-7.8125z"/>
  <path d="m57.301 12.094-4.5742 4.1562 5.7695 5.7031c0.80859-0.050781 1.6211-0.078125 2.4414-0.078125s1.6328 0.027344 2.4414 0.078125l8.1992-8.1055c1.1992-1.1875 1.8594-2.7617 1.8594-4.4375 0-1.6758-0.66016-3.25-1.8594-4.4375-2.4883-2.4609-6.5391-2.4609-9.0312 0l-0.51172 0.50391c-0.60938 0.60156-1.5898 0.60156-2.1953 0l-0.51172-0.50391c-1.2461-1.2305-2.8789-1.8477-4.5156-1.8477-0.23438 0-0.46875 0.015625-0.70312 0.039062l3.5352 7.0742c0.31641 0.625 0.17578 1.3828-0.34375 1.8555z"/>
  <path d="m44.07 32.805c-0.10547 0.003906-0.21094 0.007812-0.32031 0.007812h-5.1562c-8.2773 6.5898-13.594 16.746-13.594 28.125 0 12.293 6.2109 23.164 15.652 29.645 1.6719-0.089843 3.3047-0.31641 4.8945-0.67188-10.355-5.5234-17.422-16.438-17.422-28.973 0-11.93 6.3984-22.391 15.945-28.133z"/>
  <path d="m49.004 23.184c0.32812 0.085937 0.65234 0.17578 0.97656 0.26953 1.4766-0.43359 2.9922-0.78125 4.5352-1.043l-4.1016-4.0547-3.2617 2.9648c0.73828 0.48438 1.3711 1.1172 1.8516 1.8633z"/>
  <path d="m46.875 26.562c0-1.7227-1.4023-3.125-3.125-3.125h-9.375c-1.7227 0-3.125 1.4023-3.125 3.125s1.4023 3.125 3.125 3.125h9.375c1.7227 0 3.125-1.4023 3.125-3.125z"/>
  <path d="m75 60.938c0-16.004-10.52-29.578-25.004-34.215-0.027344 1.0859-0.33594 2.1055-0.85156 2.9883 13.176 4.2656 22.73 16.648 22.73 31.227 0 18.094-14.719 32.812-32.812 32.812s-32.812-14.719-32.812-32.812c0-14.578 9.5547-26.961 22.73-31.223-0.51953-0.88672-0.82812-1.9141-0.85156-3.0078-14.484 4.6367-25.004 18.227-25.004 34.23 0 19.816 16.121 35.938 35.938 35.938s35.938-16.121 35.938-35.938z"/>
  <path d="m60.938 25c-1.9102 0-3.7891 0.15234-5.6172 0.44531 1.7031 0.78125 3.3398 1.6836 4.9023 2.6914 0.23828-0.003907 0.47656-0.011719 0.71484-0.011719 18.094 0 32.812 14.719 32.812 32.812s-14.719 32.812-32.812 32.812c-0.23047 0-0.46094-0.003906-0.69141-0.007812-1.5586 1.0117-3.1953 1.9141-4.8984 2.6953 1.8242 0.28906 3.6875 0.4375 5.5898 0.4375 19.816 0 35.938-16.121 35.938-35.938s-16.121-35.938-35.938-35.938z"/>
  <path d="m27.344 3.4922-2.9414 5.8828h5.8828z"/>
  <path d="m42.395 9.375-3.332-4.9961-3.332 4.9961z"/>
  <path d="m36.145 3.125h-5.4922l2.3555 4.707z"/>
  <path d="m47.473 3.125h-5.4922l3.1367 4.707z"/>
  <path d="m50.781 3.4922-2.9414 5.8828h5.8828z"/>
 </g>
<text x="0.0" y="117.5" font-size="5.0" font-weight="bold" font-family="Arbeit Regular, Helvetica, Arial-Unicode, Arial, Sans-serif" fill="#000000">Created by Satawat Anukul</text><text x="0.0" y="122.5" font-size="5.0" font-weight="bold" font-family="Arbeit Regular, Helvetica, Arial-Unicode, Arial, Sans-serif" fill="#000000">from Noun Project</text></svg>