<svg xmlns="http://www.w3.org/2000/svg" xmlns:xlink="http://www.w3.org/1999/xlink" version="1.1" x="0px" y="0px" viewBox="0 0 512 640" style="enable-background:new 0 0 512 512;" xml:space="preserve"><style type="text/css">
	.st0{display:none;}
</style><path d="M407.736,328.716c4.68-6.354,8.478-14.813,10.708-24.051c3.6-14.867,2.558-29.311-2.721-37.695  c-2.507-3.981-5.915-6.528-9.856-7.366c-6.49-1.382-13.386,2.063-19.308,9.082c-0.625-12.485-3.776-23.322-9.086-30.27  c-3.631-4.752-8.211-7.597-13.242-8.226c-7.316-0.922-14.67,2.782-21.125,10.357c-1.169-8.561-3.357-16.179-6.456-22.365  c8.252-4.457,13.659-13.205,13.659-22.857c0-14.314-11.646-25.96-25.96-25.96c-14.319,0-25.97,11.646-25.97,25.96  c0,3.504,0.695,6.925,2.036,10.099c-3.8,2.37-7.472,5.72-10.92,9.953c-3.371-17.062-8.892-30.768-15.841-39.32  c9.505-5.999,15.555-16.625,15.555-28.122c0-18.317-14.897-33.22-33.21-33.22c-18.313,0-33.21,14.902-33.21,33.22  c0,11.497,6.05,22.123,15.555,28.122c-6.949,8.553-12.47,22.258-15.841,39.32c-3.448-4.233-7.12-7.583-10.92-9.953  c1.341-3.174,2.036-6.595,2.036-10.099c0-14.314-11.65-25.96-25.97-25.96c-14.314,0-25.96,11.646-25.96,25.96  c0,9.652,5.407,18.4,13.659,22.857c-3.099,6.186-5.287,13.803-6.456,22.362c-6.451-7.572-13.801-11.276-21.123-10.354  c-5.034,0.629-9.614,3.474-13.245,8.226c-5.31,6.947-8.461,17.784-9.086,30.269c-5.922-7.018-12.816-10.47-19.306-9.081  c-3.943,0.838-7.352,3.385-9.858,7.366c-5.278,8.385-6.32,22.828-2.721,37.691c2.229,9.239,6.028,17.699,10.708,24.054  c-22.331,12.799-34.094,28.09-34.094,44.44c0,7.636,2.607,15.126,7.75,22.261c0.846,1.174,2.204,1.869,3.651,1.869  c1.446,0,2.805-0.696,3.65-1.87c21.244-29.492,91.471-50.09,170.778-50.09s149.534,20.598,170.778,50.09  c0.846,1.174,2.204,1.87,3.65,1.87c0.001,0,0.001,0,0.001,0c1.446,0,2.805-0.695,3.65-1.869c5.143-7.135,7.75-14.625,7.75-22.261  C441.83,356.804,430.066,341.512,407.736,328.716z M363.111,239.12c2.622,0.328,5.049,1.93,7.212,4.761  c6.389,8.361,8.898,25.138,6.392,42.739c-0.323,2.271,1.112,4.421,3.333,4.992c2.218,0.57,4.516-0.618,5.329-2.761  c5.364-14.138,13.669-21.491,18.617-20.445c1.531,0.326,2.915,1.456,4.112,3.358c3.968,6.303,4.592,18.385,1.59,30.781  c0,0.002,0,0.003,0,0.004c-2.094,8.676-5.669,16.455-9.998,21.886c-1.673-0.828-3.396-1.641-5.161-2.44  c-0.305-0.138-0.616-0.274-0.924-0.411c-0.623-0.278-1.249-0.555-1.883-0.829c-0.368-0.159-0.741-0.317-1.112-0.475  c-0.591-0.251-1.185-0.501-1.785-0.749c-0.388-0.16-0.777-0.32-1.169-0.479c-0.606-0.246-1.218-0.49-1.833-0.732  c-0.385-0.152-0.769-0.304-1.158-0.455c-0.672-0.261-1.352-0.518-2.034-0.774c-0.333-0.125-0.664-0.252-0.999-0.376  c-1.022-0.378-2.051-0.752-3.094-1.121c-2.078-0.738-3.943-1.374-5.688-1.938c-11.622-3.802-24.389-7.021-37.982-9.584  c3.504-8.741,6.068-18.272,7.63-28.373c0.257-1.67,0.479-3.336,0.674-4.997c0.013-0.106,0.027-0.213,0.039-0.319  c0.184-1.595,0.334-3.183,0.459-4.764c0.013-0.167,0.029-0.333,0.041-0.499c0.116-1.54,0.202-3.071,0.263-4.594  c0.008-0.201,0.018-0.403,0.025-0.604c0.053-1.493,0.077-2.974,0.075-4.446c0-0.121,0.007-0.244,0.006-0.364  C349.843,244.467,357.075,238.374,363.111,239.12z M103.894,271.765c1.197-1.902,2.581-3.032,4.114-3.358  c0.311-0.066,0.635-0.1,0.971-0.1c5.002,0,12.618,7.297,17.645,20.545c0.813,2.144,3.11,3.333,5.329,2.761  c2.221-0.571,3.656-2.722,3.333-4.992c-2.507-17.602,0.003-34.378,6.392-42.739c2.163-2.831,4.59-4.433,7.215-4.761  c6.021-0.751,13.265,5.345,19.019,15.993c0,0.12,0.006,0.243,0.006,0.363c-0.001,1.471,0.023,2.952,0.075,4.444  c0.007,0.203,0.017,0.407,0.025,0.61c0.061,1.521,0.146,3.051,0.262,4.589c0.013,0.167,0.028,0.335,0.042,0.503  c0.125,1.581,0.276,3.168,0.459,4.762c0.012,0.106,0.027,0.213,0.039,0.32c0.195,1.661,0.417,3.327,0.674,4.998  c0.39,2.525,0.843,5.014,1.358,7.464c1.545,7.355,3.645,14.357,6.272,20.907c-13.605,2.565-26.364,5.784-37.966,9.579  c-1.761,0.568-3.626,1.204-5.697,1.94c-1.039,0.368-2.067,0.741-3.085,1.118c-0.351,0.13-0.697,0.263-1.046,0.394  c-0.667,0.25-1.331,0.502-1.988,0.757c-0.401,0.155-0.798,0.312-1.196,0.469c-0.598,0.236-1.193,0.473-1.784,0.712  c-0.408,0.166-0.814,0.332-1.218,0.499c-0.579,0.239-1.153,0.48-1.724,0.723c-0.391,0.166-0.783,0.332-1.171,0.5  c-0.603,0.261-1.198,0.525-1.792,0.789c-0.337,0.15-0.678,0.299-1.011,0.45c-0.837,0.379-1.663,0.761-2.479,1.146  c-0.155,0.073-0.31,0.147-0.465,0.22c-0.741,0.353-1.476,0.707-2.2,1.065c-4.329-5.431-7.904-13.21-9.998-21.89  C99.302,290.149,99.926,278.067,103.894,271.765z M429.896,385.024c-12.335-13.502-33.714-25.101-62.391-33.776  c-32.27-9.763-70.828-14.923-111.506-14.923s-79.236,5.16-111.506,14.923c-28.677,8.676-50.056,20.274-62.391,33.776  c-1.949-3.926-2.934-7.9-2.934-11.869c0-13.74,12.129-27.641,34.159-39.145c6.825-3.577,14.607-6.919,23.138-9.936  c1.995-0.709,3.78-1.317,5.473-1.863c12.328-4.033,26.018-7.396,40.71-10c0.519-0.095,1.037-0.189,1.564-0.273  c1.389-0.224,2.593-1.083,3.256-2.323c0.662-1.24,0.707-2.72,0.12-3.998c-0.431-0.938-0.861-1.883-1.279-2.874  c-3.627-8.522-6.366-18.349-7.923-28.414c-1.062-6.896-1.557-13.71-1.468-20.258c0.186-14.661,3.333-27.639,8.636-35.603  c0.797-1.198,0.974-2.706,0.475-4.056c-0.5-1.35-1.614-2.379-3-2.77c-7.266-2.049-12.34-8.759-12.34-16.318  c0-9.352,7.608-16.96,16.96-16.96c9.357,0,16.97,7.608,16.97,16.96c0,3.394-0.997,6.666-2.883,9.465  c-0.754,1.12-0.966,2.52-0.576,3.812c0.389,1.293,1.338,2.343,2.585,2.859c6.005,2.491,12.217,8.87,17.491,17.962  c0.966,1.666,2.887,2.532,4.773,2.155c1.889-0.377,3.328-1.914,3.58-3.823c3.076-23.248,10.405-42.223,19.127-49.519  c1.226-1.025,1.815-2.625,1.55-4.201c-0.267-1.576-1.35-2.894-2.846-3.459c-9.35-3.537-15.632-12.636-15.632-22.642  c0-13.354,10.86-24.22,24.21-24.22s24.21,10.865,24.21,24.22c0,10.006-6.282,19.104-15.632,22.642  c-1.496,0.565-2.579,1.883-2.846,3.459c-0.266,1.576,0.324,3.176,1.55,4.201c8.722,7.296,16.051,26.271,19.127,49.519  c0.252,1.909,1.691,3.446,3.58,3.823c1.895,0.375,3.808-0.489,4.773-2.155c5.274-9.092,11.486-15.471,17.491-17.962  c1.247-0.517,2.196-1.566,2.585-2.859c0.39-1.292,0.178-2.691-0.576-3.812c-1.886-2.799-2.883-6.071-2.883-9.465  c0-9.352,7.612-16.96,16.97-16.96c9.352,0,16.96,7.608,16.96,16.96c0,7.56-5.074,14.27-12.34,16.318c-1.386,0.391-2.5,1.42-3,2.77  c-0.499,1.35-0.322,2.857,0.475,4.056c5.303,7.964,8.45,20.941,8.636,35.606c0.089,6.544-0.405,13.358-1.468,20.252  c-0.195,1.258-0.408,2.513-0.639,3.762c-1.617,8.742-4.112,17.199-7.291,24.67c-0.411,0.976-0.842,1.921-1.272,2.858  c-0.587,1.278-0.542,2.758,0.12,3.998c0.663,1.24,1.867,2.1,3.256,2.323c0.527,0.084,1.046,0.179,1.589,0.277  c14.668,2.6,28.357,5.963,40.702,10.001c1.676,0.541,3.461,1.149,5.463,1.86c1.065,0.377,2.119,0.759,3.161,1.146  c7.293,2.708,13.998,5.659,19.976,8.792c22.024,11.5,34.153,25.4,34.153,39.141C432.83,377.124,431.846,381.099,429.896,385.024z"/><path d="M256,251.11c-14.415,0-26.143,11.728-26.143,26.144c0,14.415,11.728,26.143,26.143,26.143s26.143-11.728,26.143-26.143  C282.143,262.838,270.415,251.11,256,251.11z M256,294.396c-9.452,0-17.143-7.69-17.143-17.143c0-9.453,7.69-17.144,17.143-17.144  s17.143,7.69,17.143,17.144C273.143,286.706,265.452,294.396,256,294.396z"/><text x="0" y="527" fill="#000000" font-size="5px" font-weight="bold" font-family="'Helvetica Neue', Helvetica, Arial-Unicode, Arial, Sans-serif">Created by Rahmat Sigit Prasetyo</text><text x="0" y="532" fill="#000000" font-size="5px" font-weight="bold" font-family="'Helvetica Neue', Helvetica, Arial-Unicode, Arial, Sans-serif">from the Noun Project</text></svg>