<svg xmlns="http://www.w3.org/2000/svg" version="1.1" viewBox="-5.0 -10.0 110.0 135.0">
 <path d="m43.359 83.496c-0.23828 0-0.46875-0.11328-0.61719-0.29688l-28.859-36.914c-0.19531-0.25-0.21875-0.59375-0.058593-0.875l9.8633-17.039c0.14062-0.23828 0.39453-0.39062 0.67578-0.39062h37.988c0.27734 0 0.53516 0.14844 0.67578 0.39062l9.8633 17.039c0.16016 0.27734 0.13672 0.62109-0.058594 0.875l-28.859 36.914c-0.14844 0.1875-0.375 0.29688-0.61719 0.29688zm-27.914-37.758 27.914 35.707 27.914-35.715-9.375-16.195h-37.086l-9.3711 16.203z" fill-rule="evenodd"/>
 <path d="m72.219 46.582h-57.715c-0.42969 0-0.78125-0.35156-0.78125-0.78125 0-0.42969 0.35156-0.78125 0.78125-0.78125h57.715c0.42969 0 0.78125 0.35156 0.78125 0.78125 0 0.42969-0.35156 0.78125-0.78125 0.78125z" fill-rule="evenodd"/>
 <path d="m54.934 46.582c-0.10156 0-0.21094-0.019531-0.3125-0.0625-0.39453-0.17188-0.57812-0.63672-0.40625-1.0312l7.4219-17.039c0.17188-0.39453 0.63672-0.57812 1.0312-0.40625s0.57812 0.63672 0.40625 1.0312l-7.4219 17.039c-0.13281 0.29297-0.41406 0.46875-0.71875 0.46875z" fill-rule="evenodd"/>
 <path d="m54.934 46.582c-0.25 0-0.5-0.12109-0.64844-0.34375l-11.57-17.039c-0.24219-0.35547-0.15234-0.84375 0.20703-1.0859 0.35547-0.24219 0.84375-0.15234 1.0859 0.20703l11.57 17.039c0.24219 0.35547 0.15234 0.84375-0.20703 1.0859-0.13281 0.09375-0.28125 0.13672-0.43359 0.13672z" fill-rule="evenodd"/>
 <path d="m31.789 46.582c-0.15234 0-0.30078-0.042969-0.44141-0.13672-0.35547-0.24219-0.44922-0.72656-0.20703-1.0859l11.574-17.039c0.24219-0.35547 0.72656-0.44922 1.0859-0.20703 0.35547 0.24219 0.44922 0.72656 0.20703 1.0859l-11.574 17.039c-0.15234 0.21875-0.39453 0.34375-0.64453 0.34375z" fill-rule="evenodd"/>
 <path d="m31.789 46.582c-0.30078 0-0.58984-0.17578-0.71875-0.46875l-7.4219-17.039c-0.17188-0.39453 0.007812-0.85547 0.40625-1.0312 0.39453-0.17188 0.85547 0.007812 1.0312 0.40625l7.4219 17.039c0.17188 0.39453-0.007812 0.85547-0.40625 1.0312-0.10156 0.042969-0.21094 0.0625-0.3125 0.0625z" fill-rule="evenodd"/>
 <path d="m43.359 83.496c-0.33203 0-0.64062-0.21484-0.74609-0.54688l-11.574-36.914c-0.125-0.41016 0.097657-0.85156 0.51172-0.98047 0.41016-0.125 0.85156 0.097656 0.98047 0.51172l11.574 36.914c0.125 0.41016-0.097657 0.85156-0.51172 0.98047-0.078125 0.023437-0.15625 0.035156-0.23438 0.035156z" fill-rule="evenodd"/>
 <path d="m43.359 83.496c-0.078125 0-0.15625-0.007813-0.23438-0.035156-0.41016-0.125-0.64062-0.56641-0.51172-0.98047l10.887-34.719 0.68359-2.1992c0.125-0.41016 0.56641-0.64453 0.97656-0.51172 0.41016 0.125 0.64062 0.56641 0.51172 0.97656l-0.68359 2.1992-10.887 34.719c-0.10156 0.33594-0.41016 0.55078-0.74219 0.55078z" fill-rule="evenodd"/>
 <path d="m19.434 23.391c-0.27344 0-0.52734-0.14062-0.66797-0.38281l-1.6562-2.7617-2.7617-1.6562c-0.23438-0.14062-0.38281-0.40234-0.38281-0.67578 0-0.27734 0.15234-0.53125 0.38672-0.66797l2.7578-1.6055 1.6562-2.7578c0.14062-0.23437 0.40234-0.38281 0.67578-0.38281 0.27734 0 0.53125 0.15234 0.66797 0.38672l1.6055 2.7539 2.7539 1.6055c0.23828 0.13672 0.38672 0.39453 0.38672 0.66797 0 0.27734-0.14062 0.53125-0.38281 0.67578l-2.7578 1.6562-1.6055 2.7578c-0.13672 0.23438-0.39062 0.38672-0.67578 0.38672 0.003906 0 0 0 0 0zm-3.1562-5.457 1.7969 1.0781c0.11328 0.066406 0.19922 0.15625 0.26953 0.26953l1.0781 1.7969 1.0469-1.7891c0.066406-0.11328 0.16016-0.21094 0.27344-0.27734l1.7969-1.0781-1.7891-1.0469c-0.11719-0.066407-0.21484-0.16797-0.28516-0.28516l-1.0469-1.7891-1.0781 1.7969c-0.066406 0.11328-0.16016 0.20703-0.27734 0.27344l-1.7852 1.0469z" fill-rule="evenodd"/>
 <path d="m80.809 70.215s-0.003906 0 0 0c-0.28516 0-0.53516-0.15234-0.67578-0.38672l-1.6055-2.7539-2.7539-1.6055c-0.23828-0.14062-0.38672-0.39453-0.38672-0.67578 0-0.27734 0.14844-0.53516 0.38672-0.67578l2.7539-1.6055 1.6055-2.7539c0.13672-0.23828 0.39453-0.38672 0.66797-0.38672h0.003907c0.27344 0 0.52734 0.14062 0.66797 0.38281l1.6562 2.7578 2.7578 1.6055c0.23828 0.14062 0.38672 0.39453 0.38672 0.67578 0 0.27734-0.14844 0.53516-0.38672 0.67578l-2.7578 1.6055-1.6562 2.7578c-0.14062 0.23828-0.39453 0.38281-0.66797 0.38281zm-3.0859-5.4219 1.7734 1.0352c0.11719 0.066406 0.21484 0.16797 0.28516 0.28516l1.0469 1.7891 1.0781-1.7969c0.066406-0.11328 0.16016-0.20703 0.27734-0.27344l1.7734-1.0352-1.7734-1.0352c-0.11328-0.066407-0.21094-0.16016-0.27734-0.27344l-1.0781-1.7969-1.0469 1.7891c-0.066406 0.11719-0.16797 0.21484-0.28516 0.28516l-1.7734 1.0352zm1.3789-1.7109z" fill-rule="evenodd"/>
 <path d="m20.508 87.5c-0.27344 0-0.52734-0.14062-0.66797-0.38281l-1.6562-2.7578-2.7578-1.6055c-0.23828-0.13672-0.38672-0.39453-0.38672-0.66797 0-0.27734 0.14063-0.53125 0.38281-0.67578l2.7617-1.6562 1.6562-2.7617c0.14062-0.23438 0.39453-0.38281 0.66797-0.38281h0.003907c0.27734 0 0.53125 0.15234 0.66797 0.38672l1.6055 2.7578 2.7578 1.6562c0.23438 0.14062 0.38281 0.40234 0.38281 0.67578 0 0.27734-0.15234 0.53125-0.38672 0.66797l-2.7539 1.6055-1.6055 2.7539c-0.13672 0.23438-0.39063 0.38672-0.67188 0.38672 0.003907 0 0 0 0 0zm-3.1562-5.4297 1.7891 1.0469c0.11328 0.066406 0.21094 0.16016 0.27734 0.27344l1.0781 1.7969 1.0469-1.7891c0.066406-0.11719 0.16797-0.21484 0.28516-0.28516l1.7891-1.0469-1.7969-1.0781c-0.11328-0.066406-0.20703-0.16016-0.27344-0.27734l-1.0469-1.7891-1.0781 1.7969c-0.066406 0.11328-0.15625 0.19922-0.26953 0.26953l-1.7969 1.0781z" fill-rule="evenodd"/>
<text x="0.0" y="117.5" font-size="5.0" font-weight="bold" font-family="Arbeit Regular, Helvetica, Arial-Unicode, Arial, Sans-serif" fill="#000000">Created by Graphic Nehar</text><text x="0.0" y="122.5" font-size="5.0" font-weight="bold" font-family="Arbeit Regular, Helvetica, Arial-Unicode, Arial, Sans-serif" fill="#000000">from Noun Project</text></svg>